<svg xmlns="http://www.w3.org/2000/svg" xmlns:xlink="http://www.w3.org/1999/xlink" width="500" zoomAndPan="magnify" viewBox="0 0 375 374.999991" height="500" preserveAspectRatio="xMidYMid meet" version="1.0"><defs><g/><clipPath id="f7a2177d65"><path d="M 87.316406 209 L 94 209 L 94 222 L 87.316406 222 Z M 87.316406 209 " clip-rule="nonzero"/></clipPath><clipPath id="cac525bc2c"><path d="M 167 175.554688 L 174 175.554688 L 174 255.804688 L 167 255.804688 Z M 167 175.554688 " clip-rule="nonzero"/></clipPath><clipPath id="e949de6694"><path d="M 242 266 L 253.074219 266 L 253.074219 278 L 242 278 Z M 242 266 " clip-rule="nonzero"/></clipPath><clipPath id="47b4ed1a2d"><path d="M 237.523438 259.367188 L 248 259.367188 L 248 279.617188 L 237.523438 279.617188 Z M 237.523438 259.367188 " clip-rule="nonzero"/></clipPath><clipPath id="97e563ed02"><path d="M 236 205.890625 L 241.816406 205.890625 L 241.816406 282 L 236 282 Z M 236 205.890625 " clip-rule="nonzero"/></clipPath></defs><rect x="-37.5" width="450" fill="#ffffff" y="-37.499999" height="449.999989" fill-opacity="1"/><rect x="-37.5" width="450" fill="#ffffff" y="-37.499999" height="449.999989" fill-opacity="1"/><rect x="-37.5" width="450" fill="#ffffff" y="-37.499999" height="449.999989" fill-opacity="1"/><g fill="#2e2e2e" fill-opacity="1"><g transform="translate(198.034049, 115.088817)"><g/></g></g><g clip-path="url(#f7a2177d65)"><path fill="#a491d3" d="M 90.382812 209.734375 C 88.75 209.734375 87.425781 211.054688 87.425781 212.6875 L 87.425781 218.660156 C 87.425781 220.292969 88.75 221.613281 90.382812 221.613281 C 92.019531 221.613281 93.34375 220.292969 93.34375 218.660156 L 93.34375 212.6875 C 93.34375 211.054688 92.019531 209.734375 90.382812 209.734375 Z M 90.382812 209.734375 " fill-opacity="1" fill-rule="nonzero"/></g><path fill="#a491d3" d="M 101.824219 189.945312 C 100.191406 189.945312 98.867188 191.265625 98.867188 192.894531 L 98.867188 238.449219 C 98.867188 240.082031 100.191406 241.402344 101.824219 241.402344 C 103.457031 241.402344 104.785156 240.082031 104.785156 238.449219 L 104.785156 192.894531 C 104.785156 191.265625 103.457031 189.945312 101.824219 189.945312 Z M 101.824219 189.945312 " fill-opacity="1" fill-rule="nonzero"/><path fill="#a491d3" d="M 113.265625 200.0625 C 111.632812 200.0625 110.304688 201.382812 110.304688 203.015625 L 110.304688 228.332031 C 110.304688 229.960938 111.632812 231.285156 113.265625 231.285156 C 114.898438 231.285156 116.222656 229.960938 116.222656 228.332031 L 116.222656 203.015625 C 116.222656 201.382812 114.898438 200.0625 113.265625 200.0625 Z M 113.265625 200.0625 " fill-opacity="1" fill-rule="nonzero"/><path fill="#a491d3" d="M 124.707031 180.859375 C 123.074219 180.859375 121.75 182.183594 121.75 183.8125 L 121.75 247.535156 C 121.75 249.164062 123.074219 250.484375 124.707031 250.484375 C 126.339844 250.484375 127.667969 249.164062 127.667969 247.535156 L 127.667969 183.8125 C 127.667969 182.183594 126.34375 180.859375 124.707031 180.859375 Z M 124.707031 180.859375 " fill-opacity="1" fill-rule="nonzero"/><path fill="#a491d3" d="M 136.148438 207.800781 C 134.515625 207.800781 133.191406 209.121094 133.191406 210.753906 L 133.191406 220.59375 C 133.191406 222.226562 134.515625 223.546875 136.148438 223.546875 C 137.78125 223.546875 139.109375 222.226562 139.109375 220.59375 L 139.109375 210.753906 C 139.109375 209.121094 137.78125 207.800781 136.148438 207.800781 Z M 136.148438 207.800781 " fill-opacity="1" fill-rule="nonzero"/><path fill="#a491d3" d="M 147.589844 190.484375 C 145.957031 190.484375 144.628906 191.808594 144.628906 193.4375 L 144.628906 237.910156 C 144.628906 239.539062 145.957031 240.859375 147.589844 240.859375 C 149.222656 240.859375 150.546875 239.539062 150.546875 237.910156 L 150.546875 193.4375 C 150.546875 191.808594 149.222656 190.484375 147.589844 190.484375 Z M 147.589844 190.484375 " fill-opacity="1" fill-rule="nonzero"/><path fill="#a491d3" d="M 159.261719 180.859375 C 159.257812 180.859375 159.25 180.859375 159.242188 180.859375 C 157.617188 180.859375 156.296875 182.171875 156.285156 183.792969 L 155.859375 247.515625 C 155.847656 249.144531 157.164062 250.476562 158.796875 250.484375 C 158.804688 250.484375 158.8125 250.484375 158.816406 250.484375 C 160.445312 250.484375 161.765625 249.175781 161.777344 247.554688 L 162.203125 183.832031 C 162.214844 182.203125 160.898438 180.871094 159.261719 180.859375 Z M 159.261719 180.859375 " fill-opacity="1" fill-rule="nonzero"/><g clip-path="url(#cac525bc2c)"><path fill="#a491d3" d="M 170.46875 175.554688 C 168.835938 175.554688 167.511719 176.875 167.511719 178.507812 L 167.511719 252.839844 C 167.511719 254.46875 168.835938 255.792969 170.46875 255.792969 C 172.105469 255.792969 173.429688 254.46875 173.429688 252.839844 L 173.429688 178.507812 C 173.429688 176.875 172.105469 175.554688 170.46875 175.554688 Z M 170.46875 175.554688 " fill-opacity="1" fill-rule="nonzero"/></g><path fill="#a491d3" d="M 181.914062 193.472656 C 180.28125 193.472656 178.953125 194.792969 178.953125 196.425781 L 178.953125 234.921875 C 178.953125 236.554688 180.28125 237.875 181.914062 237.875 C 183.546875 237.875 184.871094 236.554688 184.871094 234.921875 L 184.871094 196.425781 C 184.871094 194.792969 183.546875 193.472656 181.914062 193.472656 Z M 181.914062 193.472656 " fill-opacity="1" fill-rule="nonzero"/><path fill="#a491d3" d="M 193.355469 203.015625 C 191.722656 203.015625 190.394531 204.335938 190.394531 205.964844 L 190.394531 225.382812 C 190.394531 227.011719 191.722656 228.332031 193.355469 228.332031 C 194.988281 228.332031 196.3125 227.011719 196.3125 225.382812 L 196.3125 205.964844 C 196.3125 204.335938 194.988281 203.015625 193.355469 203.015625 Z M 193.355469 203.015625 " fill-opacity="1" fill-rule="nonzero"/><path fill="#a491d3" d="M 204.792969 184.183594 C 203.160156 184.183594 201.835938 185.503906 201.835938 187.136719 L 201.835938 244.210938 C 201.835938 245.84375 203.160156 247.164062 204.792969 247.164062 C 206.425781 247.164062 207.753906 245.84375 207.753906 244.210938 L 207.753906 187.136719 C 207.753906 185.503906 206.429688 184.183594 204.792969 184.183594 Z M 204.792969 184.183594 " fill-opacity="1" fill-rule="nonzero"/><path fill="#a491d3" d="M 216.234375 195.0625 C 214.601562 195.0625 213.277344 196.382812 213.277344 198.015625 L 213.277344 233.332031 C 213.277344 234.960938 214.601562 236.285156 216.234375 236.285156 C 217.867188 236.285156 219.195312 234.960938 219.195312 233.332031 L 219.195312 198.015625 C 219.195312 196.382812 217.867188 195.0625 216.234375 195.0625 Z M 216.234375 195.0625 " fill-opacity="1" fill-rule="nonzero"/><path fill="#a491d3" d="M 227.675781 205.085938 C 226.042969 205.085938 224.71875 206.410156 224.71875 208.039062 L 224.71875 223.304688 C 224.71875 224.9375 226.042969 226.257812 227.675781 226.257812 C 229.308594 226.257812 230.636719 224.9375 230.636719 223.304688 L 230.636719 208.039062 C 230.636719 206.410156 229.308594 205.085938 227.675781 205.085938 Z M 227.675781 205.085938 " fill-opacity="1" fill-rule="nonzero"/><path fill="#a491d3" d="M 239.117188 180.859375 C 237.484375 180.859375 236.160156 182.183594 236.160156 183.8125 L 236.160156 247.535156 C 236.160156 249.164062 237.484375 250.484375 239.117188 250.484375 C 240.75 250.484375 242.078125 249.164062 242.078125 247.535156 L 242.078125 183.8125 C 242.078125 182.183594 240.75 180.859375 239.117188 180.859375 Z M 239.117188 180.859375 " fill-opacity="1" fill-rule="nonzero"/><path fill="#a491d3" d="M 250.558594 198.988281 C 248.925781 198.988281 247.601562 200.308594 247.601562 201.9375 L 247.601562 229.40625 C 247.601562 231.039062 248.925781 232.359375 250.558594 232.359375 C 252.191406 232.359375 253.519531 231.039062 253.519531 229.40625 L 253.519531 201.9375 C 253.519531 200.308594 252.191406 198.988281 250.558594 198.988281 Z M 250.558594 198.988281 " fill-opacity="1" fill-rule="nonzero"/><path fill="#a491d3" d="M 262 210.5625 C 260.367188 210.5625 259.039062 211.886719 259.039062 213.515625 L 259.039062 217.832031 C 259.039062 219.460938 260.367188 220.78125 262 220.78125 C 263.632812 220.78125 264.957031 219.460938 264.957031 217.832031 L 264.957031 213.515625 C 264.957031 211.886719 263.632812 210.5625 262 210.5625 Z M 262 210.5625 " fill-opacity="1" fill-rule="nonzero"/><g fill="#ffffff" fill-opacity="1"><g transform="translate(115.362156, 278.50425)"><g><path d="M 10.1875 0.328125 C 8.101562 0.328125 6.421875 0.101562 5.140625 -0.34375 C 3.867188 -0.789062 2.898438 -1.40625 2.234375 -2.1875 C 1.566406 -2.96875 1.117188 -3.875 0.890625 -4.90625 L 7.75 -4.90625 C 8.257812 -4.164062 9.070312 -3.796875 10.1875 -3.796875 C 11.289062 -3.796875 12.097656 -4.164062 12.609375 -4.90625 C 12.648438 -4.96875 12.671875 -5.03125 12.671875 -5.09375 C 12.671875 -5.28125 12.414062 -5.421875 11.90625 -5.515625 C 11.394531 -5.617188 10.628906 -5.695312 9.609375 -5.75 C 8.328125 -5.800781 6.984375 -5.9375 5.578125 -6.15625 C 2.429688 -6.644531 0.859375 -7.910156 0.859375 -9.953125 C 0.859375 -10.117188 0.867188 -10.300781 0.890625 -10.5 C 1.117188 -11.519531 1.566406 -12.421875 2.234375 -13.203125 C 2.898438 -13.992188 3.867188 -14.613281 5.140625 -15.0625 C 6.421875 -15.507812 8.101562 -15.734375 10.1875 -15.734375 C 12.269531 -15.734375 13.945312 -15.507812 15.21875 -15.0625 C 16.5 -14.613281 17.46875 -13.992188 18.125 -13.203125 C 18.789062 -12.421875 19.238281 -11.519531 19.46875 -10.5 L 12.609375 -10.5 C 12.097656 -11.226562 11.289062 -11.59375 10.1875 -11.59375 C 9.070312 -11.59375 8.257812 -11.226562 7.75 -10.5 C 7.71875 -10.4375 7.703125 -10.378906 7.703125 -10.328125 C 7.703125 -10.160156 7.945312 -10.035156 8.4375 -9.953125 C 8.925781 -9.867188 9.648438 -9.796875 10.609375 -9.734375 C 11.566406 -9.679688 12.582031 -9.585938 13.65625 -9.453125 C 14.738281 -9.328125 15.75 -9.101562 16.6875 -8.78125 C 17.632812 -8.46875 18.375 -8 18.90625 -7.375 C 19.320312 -6.894531 19.53125 -6.285156 19.53125 -5.546875 C 19.53125 -5.347656 19.507812 -5.132812 19.46875 -4.90625 C 19.238281 -3.875 18.789062 -2.96875 18.125 -2.1875 C 17.46875 -1.40625 16.5 -0.789062 15.21875 -0.34375 C 13.945312 0.101562 12.269531 0.328125 10.1875 0.328125 Z M 10.1875 0.328125 "/></g></g></g><g fill="#ffffff" fill-opacity="1"><g transform="translate(135.747206, 278.50425)"><g><path d="M 11.65625 0.328125 C 7.84375 0.328125 5.039062 -0.453125 3.25 -2.015625 C 1.65625 -3.410156 0.859375 -5.304688 0.859375 -7.703125 C 0.859375 -10.097656 1.65625 -11.988281 3.25 -13.375 C 5.039062 -14.945312 7.84375 -15.734375 11.65625 -15.734375 C 15.46875 -15.734375 18.269531 -14.945312 20.0625 -13.375 C 21.65625 -11.988281 22.453125 -10.097656 22.453125 -7.703125 C 22.453125 -5.304688 21.65625 -3.410156 20.0625 -2.015625 C 18.269531 -0.453125 15.46875 0.328125 11.65625 0.328125 Z M 11.65625 -3.796875 C 13.21875 -3.796875 14.363281 -4.242188 15.09375 -5.140625 C 15.675781 -5.867188 15.96875 -6.722656 15.96875 -7.703125 C 15.96875 -8.679688 15.675781 -9.53125 15.09375 -10.25 C 14.363281 -11.15625 13.21875 -11.609375 11.65625 -11.609375 C 10.09375 -11.609375 8.941406 -11.15625 8.203125 -10.25 C 7.617188 -9.53125 7.328125 -8.679688 7.328125 -7.703125 C 7.328125 -6.722656 7.617188 -5.867188 8.203125 -5.140625 C 8.941406 -4.242188 10.09375 -3.796875 11.65625 -3.796875 Z M 11.65625 -3.796875 "/></g></g></g><g fill="#ffffff" fill-opacity="1"><g transform="translate(159.053613, 278.50425)"><g><path d="M 10.84375 0.328125 C 7.082031 0.328125 4.4375 -0.453125 2.90625 -2.015625 C 1.613281 -3.316406 0.96875 -5.207031 0.96875 -7.6875 L 0.96875 -15.40625 L 7.4375 -15.40625 L 7.4375 -7.6875 C 7.4375 -6.613281 7.617188 -5.765625 7.984375 -5.140625 C 8.503906 -4.242188 9.457031 -3.796875 10.84375 -3.796875 C 12.238281 -3.796875 13.191406 -4.242188 13.703125 -5.140625 C 14.066406 -5.785156 14.25 -6.632812 14.25 -7.6875 L 14.25 -15.40625 L 20.71875 -15.40625 L 20.71875 -7.609375 C 20.71875 -5.179688 20.078125 -3.316406 18.796875 -2.015625 C 17.253906 -0.453125 14.601562 0.328125 10.84375 0.328125 Z M 10.84375 0.328125 "/></g></g></g><g fill="#ffffff" fill-opacity="1"><g transform="translate(180.738243, 278.50425)"><g><path d="M 24.59375 0 L 16.890625 0 L 8.1875 -10.4375 L 8.1875 0 L 1.71875 0 L 1.71875 -15.421875 L 9.40625 -15.421875 L 18.125 -5.03125 L 18.125 -15.421875 L 24.59375 -15.421875 Z M 24.59375 0 "/></g></g></g><g fill="#ffffff" fill-opacity="1"><g transform="translate(207.041193, 278.50425)"><g><path d="M 12.03125 0 L 1.71875 0 L 1.71875 -15.421875 L 12.03125 -15.421875 C 16.25 -15.421875 19.28125 -14.828125 21.125 -13.640625 C 22.613281 -12.691406 23.460938 -11.394531 23.671875 -9.75 C 23.765625 -9.039062 23.8125 -8.359375 23.8125 -7.703125 C 23.8125 -7.046875 23.765625 -6.363281 23.671875 -5.65625 C 23.585938 -4.945312 23.351562 -4.253906 22.96875 -3.578125 C 22.582031 -2.910156 21.96875 -2.304688 21.125 -1.765625 C 20.28125 -1.234375 19.125 -0.804688 17.65625 -0.484375 C 16.195312 -0.160156 14.320312 0 12.03125 0 Z M 11.421875 -3.8125 C 14.703125 -3.8125 16.5625 -4.644531 17 -6.3125 C 17.113281 -6.769531 17.171875 -7.234375 17.171875 -7.703125 C 17.171875 -8.171875 17.109375 -8.632812 16.984375 -9.09375 C 16.867188 -9.5625 16.617188 -9.984375 16.234375 -10.359375 C 15.847656 -10.734375 15.269531 -11.035156 14.5 -11.265625 C 13.738281 -11.492188 12.710938 -11.609375 11.421875 -11.609375 L 8.1875 -11.609375 L 8.1875 -3.8125 Z M 11.421875 -3.8125 "/></g></g></g><path fill="#a491d3" d="M 243.894531 265.582031 C 243.894531 264.882812 244.472656 264.316406 245.179688 264.316406 C 245.890625 264.316406 246.464844 264.882812 246.464844 265.582031 C 246.464844 266.285156 245.890625 266.851562 245.179688 266.851562 C 244.472656 266.851562 243.894531 266.285156 243.894531 265.582031 " fill-opacity="1" fill-rule="nonzero"/><g clip-path="url(#e949de6694)"><path fill="#a491d3" d="M 245.902344 273.511719 L 245.902344 276.503906 C 245.902344 276.839844 245.628906 277.109375 245.289062 277.109375 C 244.953125 277.109375 244.679688 276.839844 244.679688 276.503906 L 244.679688 272.988281 L 246.175781 271.601562 L 245.484375 269.125 L 244.785156 270.46875 L 242.789062 270.46875 C 242.449219 270.46875 242.175781 270.195312 242.175781 269.863281 C 242.175781 269.53125 242.449219 269.257812 242.789062 269.257812 L 244.039062 269.257812 L 245.011719 267.429688 L 247.097656 266.769531 L 249.199219 266.769531 L 250.613281 268.164062 C 250.851562 268.402344 250.851562 268.785156 250.613281 269.019531 C 250.375 269.253906 249.988281 269.253906 249.746094 269.019531 L 248.691406 267.976562 L 247.433594 267.976562 L 248.355469 271.28125 L 248.34375 271.285156 L 249.460938 272.632812 L 252.464844 272.632812 C 252.800781 272.632812 253.074219 272.90625 253.074219 273.238281 C 253.074219 273.570312 252.800781 273.84375 252.464844 273.84375 L 248.898438 273.84375 L 248.898438 273.824219 L 248.878906 273.84375 L 247.429688 272.09375 L 245.902344 273.511719 " fill-opacity="1" fill-rule="nonzero"/></g><g clip-path="url(#47b4ed1a2d)"><path fill="#a491d3" d="M 241.652344 259.363281 L 241.652344 261.09375 L 247.648438 261.09375 L 247.648438 266.449219 L 247.078125 266.449219 L 247.078125 261.660156 L 241.652344 261.660156 L 241.652344 277.316406 L 244.839844 277.316406 C 244.972656 277.390625 245.125 277.429688 245.289062 277.429688 C 245.453125 277.429688 245.605469 277.390625 245.742188 277.316406 L 247.078125 277.316406 L 247.078125 272.863281 L 247.398438 272.5625 L 247.648438 272.867188 L 247.648438 277.882812 L 241.652344 277.882812 L 241.652344 279.613281 L 237.328125 277.800781 L 237.328125 261.175781 L 241.652344 259.363281 " fill-opacity="1" fill-rule="nonzero"/></g><g clip-path="url(#97e563ed02)"><path fill="#a491d3" d="M 239.835938 195.347656 C 237.816406 195.347656 236.175781 196.976562 236.175781 198.988281 L 236.175781 277.597656 C 236.175781 279.609375 237.816406 281.238281 239.835938 281.238281 C 241.855469 281.238281 243.492188 279.609375 243.492188 277.597656 L 243.492188 198.988281 C 243.492188 196.976562 241.855469 195.347656 239.835938 195.347656 Z M 239.835938 195.347656 " fill-opacity="1" fill-rule="nonzero"/></g><g fill="#fdfdfd" fill-opacity="1"><g transform="translate(207.966584, 281.837595)"><g><path d="M 0.488281 -2.359375 L 0.488281 -0.46875 C 0.488281 -0.148438 0.425781 -0.0976562 0.0585938 -0.0976562 L 0.0585938 0 L 2.648438 0 L 2.769531 -0.964844 L 2.671875 -0.964844 C 2.460938 -0.34375 2.210938 -0.0976562 1.699219 -0.0976562 C 1.359375 -0.0976562 1.242188 -0.210938 1.242188 -0.46875 L 1.242188 -1.335938 C 1.671875 -1.335938 1.925781 -1.152344 2.015625 -0.699219 L 2.117188 -0.699219 L 2.117188 -2.074219 L 2.015625 -2.074219 C 1.925781 -1.621094 1.671875 -1.4375 1.242188 -1.4375 L 1.242188 -2.359375 C 1.242188 -2.621094 1.359375 -2.730469 1.664062 -2.730469 C 2.117188 -2.730469 2.367188 -2.488281 2.578125 -1.863281 L 2.675781 -1.863281 L 2.554688 -2.828125 L 0.0585938 -2.828125 L 0.0585938 -2.730469 C 0.425781 -2.730469 0.488281 -2.679688 0.488281 -2.359375 Z M 0.488281 -2.359375 "/></g></g></g><g fill="#fdfdfd" fill-opacity="1"><g transform="translate(211.65712, 281.837595)"><g><path d="M 0.0859375 0 L 0.183594 0 C 0.265625 -0.105469 0.316406 -0.140625 0.402344 -0.140625 C 0.59375 -0.140625 0.808594 0.0351562 1.300781 0.0351562 C 1.960938 0.0351562 2.375 -0.28125 2.375 -0.777344 C 2.375 -1.730469 0.832031 -1.710938 0.832031 -2.378906 C 0.832031 -2.617188 0.996094 -2.765625 1.257812 -2.765625 C 1.648438 -2.765625 1.992188 -2.425781 2.1875 -1.851562 L 2.285156 -1.851562 L 2.285156 -2.828125 L 2.1875 -2.828125 C 2.105469 -2.722656 2.054688 -2.6875 1.96875 -2.6875 C 1.777344 -2.6875 1.5625 -2.863281 1.136719 -2.863281 C 0.550781 -2.863281 0.148438 -2.535156 0.148438 -2.050781 C 0.148438 -1.097656 1.691406 -1.117188 1.691406 -0.445312 C 1.691406 -0.199219 1.519531 -0.0625 1.214844 -0.0625 C 0.738281 -0.0625 0.382812 -0.382812 0.183594 -0.980469 L 0.0859375 -0.980469 Z M 0.0859375 0 "/></g></g></g><g fill="#fdfdfd" fill-opacity="1"><g transform="translate(215.014322, 281.837595)"><g><path d="M 0.128906 -1.414062 C 0.128906 -0.542969 0.648438 0.0351562 1.480469 0.0351562 C 1.988281 0.0351562 2.347656 -0.183594 2.546875 -0.398438 L 2.644531 -0.980469 L 2.546875 -0.980469 C 2.257812 -0.121094 1.769531 -0.0625 1.617188 -0.0625 C 1.15625 -0.0625 0.925781 -0.542969 0.925781 -1.414062 C 0.925781 -2.09375 1.0625 -2.765625 1.574219 -2.765625 C 1.941406 -2.765625 2.265625 -2.429688 2.460938 -1.851562 L 2.558594 -1.851562 L 2.558594 -2.828125 L 2.460938 -2.828125 C 2.378906 -2.722656 2.328125 -2.6875 2.242188 -2.6875 C 2.050781 -2.6875 1.863281 -2.863281 1.4375 -2.863281 C 0.589844 -2.863281 0.128906 -2.21875 0.128906 -1.414062 Z M 0.128906 -1.414062 "/></g></g></g><g fill="#fdfdfd" fill-opacity="1"><g transform="translate(218.580925, 281.837595)"><g><path d="M 0.0273438 0 L 0.96875 0 L 0.96875 -0.0976562 C 0.8125 -0.0976562 0.707031 -0.191406 0.707031 -0.335938 C 0.707031 -0.445312 0.761719 -0.636719 0.84375 -0.855469 L 1.824219 -0.855469 L 2 -0.453125 C 2.121094 -0.179688 2.046875 -0.0976562 1.6875 -0.0976562 L 1.6875 0 L 3.347656 0 L 3.347656 -0.0976562 C 3.042969 -0.0976562 2.949219 -0.179688 2.808594 -0.484375 L 1.730469 -2.828125 L 1.582031 -2.828125 C 1.273438 -2.316406 0.597656 -0.0976562 0.0273438 -0.0976562 Z M 1.332031 -1.972656 L 1.78125 -0.953125 L 0.878906 -0.953125 C 1.035156 -1.351562 1.242188 -1.800781 1.332031 -1.972656 Z M 1.332031 -1.972656 "/></g></g></g><g fill="#fdfdfd" fill-opacity="1"><g transform="translate(222.822754, 281.837595)"><g><path d="M 0.0585938 0 L 1.671875 0 L 1.671875 -0.0976562 C 1.304688 -0.0976562 1.242188 -0.148438 1.242188 -0.46875 L 1.242188 -1 L 1.554688 -1 C 2.378906 -1 2.824219 -1.320312 2.824219 -1.914062 C 2.824219 -2.507812 2.378906 -2.828125 1.554688 -2.828125 L 0.0585938 -2.828125 L 0.0585938 -2.730469 C 0.425781 -2.730469 0.488281 -2.679688 0.488281 -2.359375 L 0.488281 -0.46875 C 0.488281 -0.148438 0.425781 -0.0976562 0.0585938 -0.0976562 Z M 1.554688 -2.730469 C 1.832031 -2.730469 2.027344 -2.394531 2.027344 -1.914062 C 2.027344 -1.4375 1.828125 -1.097656 1.554688 -1.097656 L 1.472656 -1.097656 C 1.292969 -1.097656 1.242188 -1.167969 1.242188 -1.417969 L 1.242188 -2.730469 Z M 1.554688 -2.730469 "/></g></g></g><g fill="#fdfdfd" fill-opacity="1"><g transform="translate(226.645775, 281.837595)"><g><path d="M 0.488281 -2.359375 L 0.488281 -0.46875 C 0.488281 -0.148438 0.425781 -0.0976562 0.0585938 -0.0976562 L 0.0585938 0 L 2.648438 0 L 2.769531 -0.964844 L 2.671875 -0.964844 C 2.460938 -0.34375 2.210938 -0.0976562 1.699219 -0.0976562 C 1.359375 -0.0976562 1.242188 -0.210938 1.242188 -0.46875 L 1.242188 -1.335938 C 1.671875 -1.335938 1.925781 -1.152344 2.015625 -0.699219 L 2.117188 -0.699219 L 2.117188 -2.074219 L 2.015625 -2.074219 C 1.925781 -1.621094 1.671875 -1.4375 1.242188 -1.4375 L 1.242188 -2.359375 C 1.242188 -2.621094 1.359375 -2.730469 1.664062 -2.730469 C 2.117188 -2.730469 2.367188 -2.488281 2.578125 -1.863281 L 2.675781 -1.863281 L 2.554688 -2.828125 L 0.0585938 -2.828125 L 0.0585938 -2.730469 C 0.425781 -2.730469 0.488281 -2.679688 0.488281 -2.359375 Z M 0.488281 -2.359375 "/></g></g></g></svg>